<svg width="1920" height="136" viewBox="0 0 1920 136" fill="none" xmlns="http://www.w3.org/2000/svg">
<path d="M0 0H1920V0C1920 7.39332 1913.42 13.4152 1906.04 13.8598C1897.66 14.3646 1885.7 15.9096 1870.67 19.9836C1857.43 23.5703 1836.36 43.0078 1842.81 102.959C1843.13 105.882 1842.91 108.897 1841.97 111.68C1832.67 138.992 1822.25 135.902 1819.33 135.889C1810.5 135.85 1794.67 135.389 1787.33 105.414C1781.47 81.4334 1846 21.4824 1789.33 23.4808C1732.67 25.4791 1775.33 89.4268 1750 88.9272C1724.67 88.4276 1723.19 57.9526 1722 51.9575C1709.33 -11.9902 1694.98 22.2565 1677.33 21.4824C1658.07 20.6375 1661.33 1.99836 1624.67 6.99428C1588 11.9902 1576 23.9804 1530 18.4849C1484 12.9894 1496.61 55.1093 1465.33 55.4546C1446.62 55.6613 1439.67 26.9184 1421.44 24.3464C1419.62 24.0893 1417.77 24.4144 1415.99 24.894C1391.4 31.5325 1364.67 36.2336 1328 15.9869C1300 5.99509 1308.8 9.83245 1278.67 9.99182C1196 36.4702 1138 42.9648 1076 20.3155C1076 20.3155 1041.73 9.96122 1019.33 9.99182C998.722 10.02 952.43 23.9649 930 23.9804C905.704 23.9971 896.667 27.4775 875.333 20.4832C857.949 15.8306 846.925 5.11164 832.03 8.9067C829.764 9.48408 827.763 10.7905 825.925 12.2366C802.8 30.4351 787.668 23.6278 785.333 22.4816C766 12.9894 767.134 10.73 756 11.4906C726.442 13.5098 739.278 33.4726 740.667 45.9624C742.056 58.4522 728.667 67.4448 714.667 65.946C700.667 64.4473 728 35.471 717.333 20.4832C706.667 5.4955 669.031 8.50892 652.667 8.49305C635.496 8.4764 601.691 25.0171 586 24.9796C561.826 24.9217 508.171 10.1039 488 9.99182C461.351 9.84378 417.122 22.7356 398.667 22.4816C368.241 22.0629 359.883 17.7392 356.667 16.9861C326.295 9.87354 312.739 3.66107 284.078 19.7059C280.943 21.4607 276.896 22.555 275.306 25.7766C271.779 32.9254 271.976 50.5219 271.998 66.817C272 68.2313 271.878 69.6516 271.506 71.0161C267.887 84.2932 257.177 90.6351 254.667 90.426C249.532 89.9985 237.076 92.4975 228.993 83.2109C226.07 79.8519 225.886 75.0802 226.514 70.6716C229.957 46.5284 221.939 38.7681 209.333 39.4677C193.266 40.3594 204 58.4522 179.333 58.4522C154.667 58.4522 152.687 13.8299 136 14.9877C93.0463 17.9681 112 82.4325 115.333 96.9207C118.667 111.409 98 111.908 88.6667 110.909C79.3333 109.91 70 104.415 68 93.4235C66 82.4325 81.6881 45.7334 72 24.9796C65.0427 10.0756 37.4636 22.6904 31.3333 22.4816C24.8471 22.2607 17.9698 20.5741 12.3158 18.7614C4.62268 16.295 0 8.84874 0 0.769963V0Z" fill="#D8221E"/>
</svg>
